<svg width="999" height="414" viewBox="0 0 999 414" fill="none" xmlns="http://www.w3.org/2000/svg">
<g clip-path="url(#clip0_408_3)">
<path d="M124.751 2.55572L12.877 60.4046C4.70017 64.6361 -0.439257 73.0717 -0.439257 82.2775V154.846C-0.439257 164.057 4.70016 172.498 12.8825 176.724L183.887 265.129V294.276L134.958 319.566L-0.450256 249.557V267.253L134.958 337.263L199.608 303.834V273.262L212.203 279.772V311.505L212.209 311.516L71.6064 384.167L124.751 411.653C131.156 414.96 138.766 414.96 145.171 411.653L257.055 353.804C265.238 349.572 270.372 341.131 270.372 331.92V259.357C270.372 250.151 265.238 241.705 257.055 237.479L86.0342 149.068V119.915L134.958 94.6253L270.372 164.63V146.939L134.958 76.9235L70.3132 110.352V140.941L57.7343 134.437V102.714L57.7178 102.676L134.963 62.7597L198.304 30.0248L145.171 2.55572C141.968 0.899437 138.469 0.0740661 134.963 0.0740661C131.458 0.0740661 127.953 0.899437 124.751 2.55572ZM148.654 69.8416L270.372 132.769V82.2775C270.372 73.0717 265.238 64.6361 257.055 60.4046L211.994 37.1011L148.654 69.8416ZM-0.439257 331.925C-0.439257 341.131 4.70017 349.572 12.877 353.804L57.9214 377.091L121.267 344.35L-0.439257 281.439V331.925Z" fill="url(#paint0_linear_408_3)"/>
<path d="M124.751 7.86568L17.5983 63.2714C9.41588 67.5029 4.28194 75.9384 4.28194 85.1498V151.979C4.28194 161.185 9.41588 169.626 17.5983 173.857L188.603 262.262V297.149L134.958 324.876L4.26544 257.304V264.381L134.958 331.958L194.892 300.967V265.509L216.919 276.899V310.404L218.493 313.574L81.8742 384.167L124.751 406.337C131.156 409.649 138.766 409.649 145.171 406.342L252.339 350.937C260.516 346.705 265.656 338.259 265.656 329.053V262.229C265.656 253.023 260.516 244.577 252.334 240.351L81.3184 151.94V117.043L134.958 89.3097L265.656 156.887V149.805L134.958 82.2334L75.029 113.219V148.683L53.0185 137.303V103.87L51.3512 100.662L188.036 30.0247L145.171 7.86568C141.968 6.20939 138.469 5.38398 134.963 5.38398C131.458 5.38398 127.953 6.20939 124.751 7.86568ZM158.922 69.8415L265.656 125.022V85.1498C265.656 75.9439 260.516 67.5029 252.339 63.2714L211.994 42.411L158.922 69.8415ZM4.28194 329.053C4.28194 338.259 9.41588 346.705 17.5983 350.937L57.9214 371.786L110.994 344.345L4.28194 289.181V329.053Z" fill="url(#paint1_linear_408_3)"/>
<path d="M286.514 274.427H298.618V335.27H314.717V274.427H326.82V260.691H286.514V274.427ZM358.404 274.773V335.27H374.542V310.276H386.203V335.27H402.36V274.773C402.36 264.572 397.576 259.519 388.047 259.519H372.697C363.188 259.577 358.404 264.629 358.404 274.773ZM374.542 297.788V272.794C374.542 271.622 375.56 270.489 376.751 270.489H384.013C385.185 270.489 386.203 271.622 386.203 272.794V297.788H374.542ZM438.497 335.27H454.654V306.011H471.022V292.486H454.654V274.658H472.155V260.691H438.497V335.27ZM505.756 335.27H521.913V306.011H538.282V292.486H521.913V274.658H539.415V260.691H505.756V335.27ZM573.016 274.773V321.207C573.016 331.332 577.8 336.404 587.309 336.404H601.833C611.343 336.404 616.127 331.332 616.127 321.207V311.525H600.815V323.052C600.815 324.243 599.816 325.357 598.625 325.357H591.363C590.191 325.357 589.173 324.243 589.173 323.052V272.794C589.173 271.622 590.191 270.489 591.363 270.489H598.625C599.816 270.489 600.815 271.622 600.815 272.794V281.804H616.127V274.773C616.127 264.572 611.343 259.519 601.833 259.519H587.309C577.8 259.577 573.016 264.629 573.016 274.773ZM649.958 335.27H666.115V306.011H678.891V335.27H695.048V260.691H678.891V291.929H666.115V260.691H649.958V335.27ZM730.743 274.773V335.27H746.88V310.276H758.542V335.27H774.699V274.773C774.699 264.572 769.915 259.519 760.405 259.519H745.036C735.526 259.577 730.743 264.629 730.743 274.773ZM746.88 297.788V272.794C746.88 271.622 747.899 270.489 749.09 270.489H756.352C757.524 270.489 758.542 271.622 758.542 272.794V297.788H746.88ZM810.72 274.773V335.27H826.877V273.351C826.877 272.179 827.876 271.046 829.067 271.046H835.311C836.502 271.046 837.463 272.179 837.463 273.351V335.27H853.6V274.773C853.6 264.572 848.817 259.519 839.307 259.519H825.014C815.504 259.577 810.72 264.629 810.72 274.773ZM888.623 274.773V321.207C888.623 331.332 893.407 336.404 902.917 336.404H917.44C926.95 336.404 931.734 331.332 931.734 321.207V293.792H910.409V305.665H916.422V323.052C916.422 324.243 915.404 325.357 914.232 325.357H906.97C905.779 325.357 904.78 324.243 904.78 323.052V272.794C904.78 271.622 905.779 270.489 906.97 270.489H914.232C915.404 270.489 916.422 271.622 916.422 272.794V281.804H931.734V274.773C931.734 264.572 926.95 259.519 917.44 259.519H902.917C893.407 259.577 888.623 264.629 888.623 274.773ZM964.778 335.27H998.82V321.88H980.935V304.032H997.649V291.372H980.935V273.812H998.82V260.691H964.778V335.27Z" fill="#D79C4E"/>
</g>
<defs>
<linearGradient id="paint0_linear_408_3" x1="-0.451274" y1="207.103" x2="270.373" y2="207.103" gradientUnits="userSpaceOnUse">
<stop stop-color="#B97539"/>
<stop offset="0.49631" stop-color="#FFD297"/>
<stop offset="1" stop-color="#B97539"/>
</linearGradient>
<linearGradient id="paint1_linear_408_3" x1="134.961" y1="408.822" x2="134.961" y2="5.38384" gradientUnits="userSpaceOnUse">
<stop stop-color="#B97539"/>
<stop offset="0.49631" stop-color="#FFD297"/>
<stop offset="1" stop-color="#B97539"/>
</linearGradient>
<clipPath id="clip0_408_3">
<rect width="999" height="414" fill="white"/>
</clipPath>
</defs>
</svg>
