<svg width="785" height="537" viewBox="0 0 785 537" fill="none" xmlns="http://www.w3.org/2000/svg">
<g clip-path="url(#clip0_408_16)">
<path d="M380.79 2.20025L268.916 60.0492C260.74 64.2807 255.6 72.7162 255.6 81.9221V154.49C255.6 163.702 260.74 172.143 268.922 176.369L439.926 264.774V293.921L390.997 319.211L255.589 249.201V266.898L390.997 336.907L455.647 303.479V272.907L468.243 279.416V311.15L468.248 311.161L327.646 383.812L380.79 411.297C387.195 414.604 394.805 414.604 401.21 411.297L513.095 353.448C521.277 349.217 526.411 340.776 526.411 331.564V259.001C526.411 249.796 521.277 241.349 513.095 237.123L342.074 148.713V119.56L390.997 94.2699L526.411 164.274V146.583L390.997 76.568L326.353 109.996V140.585L313.774 134.081V102.359L313.757 102.32L391.003 62.4043L454.343 29.6693L401.21 2.20025C398.008 0.543968 394.508 -0.281403 391.003 -0.281403C387.498 -0.281403 383.992 0.543968 380.79 2.20025ZM404.693 69.4861L526.411 132.414V81.9221C526.411 72.7162 521.277 64.2807 513.095 60.0492L468.034 36.7456L404.693 69.4861ZM255.6 331.57C255.6 340.776 260.74 349.217 268.916 353.448L313.961 376.735L377.307 343.995L255.6 281.083V331.57Z" fill="url(#paint0_linear_408_16)"/>
<path d="M380.79 7.51021L273.638 62.9159C265.455 67.1474 260.321 75.5829 260.321 84.7943V151.623C260.321 160.829 265.455 169.27 273.638 173.502L444.642 261.907V296.793L390.997 324.521L260.305 256.949V264.025L390.997 331.603L450.932 300.612V265.153L472.959 276.544V310.049L474.532 313.218L337.914 383.811L380.79 405.981C387.195 409.294 394.805 409.294 401.21 405.987L508.379 350.581C516.556 346.35 521.695 337.903 521.695 328.697V261.874C521.695 252.668 516.556 244.221 508.373 239.995L337.358 151.585V116.687L390.997 88.9543L521.695 156.532V149.45L390.997 81.8779L331.068 112.863V148.327L309.058 136.948V103.514L307.391 100.306L444.075 29.6692L401.21 7.51021C398.008 5.85392 394.508 5.02851 391.003 5.02851C387.498 5.02851 383.992 5.85392 380.79 7.51021ZM414.961 69.486L521.695 124.666V84.7943C521.695 75.5884 516.556 67.1474 508.379 62.9159L468.034 42.0556L414.961 69.486ZM260.321 328.697C260.321 337.903 265.455 346.35 273.638 350.581L313.961 371.431L367.033 343.989L260.321 288.825V328.697Z" fill="url(#paint1_linear_408_16)"/>
<path d="M-0.175079 522.075C-0.175079 532.2 4.60859 537.272 14.1183 537.272H27.7393C37.249 537.272 42.0327 532.2 42.0327 522.075V506.034C42.0327 496.063 37.249 490.991 27.7393 490.837H17.3843C16.0971 490.837 15.1942 489.704 15.1942 488.513V475.295C15.1942 474.008 16.1932 472.99 17.3843 472.99H23.6857C24.9728 472.99 25.8758 474.104 25.8758 475.295V481.155H41.245V475.641C41.245 465.44 36.4613 460.387 26.9516 460.387H14.1183C4.60859 460.445 -0.175079 465.497 -0.175079 475.641V490.492C-0.175079 500.616 4.60859 505.688 14.1183 505.688H24.531C25.7029 505.688 26.7211 506.821 26.7211 507.993V522.633C26.7211 523.92 25.7029 524.938 24.531 524.938H17.3843C16.0971 524.938 15.1942 523.804 15.1942 522.633V514.352H-0.175079V522.075ZM72.5406 475.295H84.6439V536.138H100.743V475.295H112.846V461.559H72.5406V475.295ZM144.43 475.641V536.138H160.568V511.144H172.229V536.138H188.386V475.641C188.386 465.44 183.602 460.387 174.093 460.387H158.724C149.214 460.445 144.43 465.497 144.43 475.641ZM160.568 498.657V473.662C160.568 472.49 161.586 471.357 162.777 471.357H170.039C171.211 471.357 172.229 472.49 172.229 473.662V498.657H160.568ZM224.523 536.138H240.68V506.879H257.048V493.354H240.68V475.526H258.182V461.559H224.523V536.138ZM291.783 536.138H307.94V506.879H324.308V493.354H307.94V475.526H325.441V461.559H291.783V536.138ZM359.042 475.641V522.075C359.042 532.2 363.826 537.272 373.336 537.272H387.86C397.369 537.272 402.153 532.2 402.153 522.075V512.393H386.861V523.92C386.861 525.111 385.842 526.225 384.651 526.225H377.389C376.217 526.225 375.199 525.111 375.199 523.92V473.662C375.199 472.49 376.217 471.357 377.389 471.357H384.651C385.842 471.357 386.861 472.49 386.861 473.662V482.673H402.153V475.641C402.153 465.44 397.369 460.387 387.86 460.387H373.336C363.826 460.445 359.042 465.497 359.042 475.641ZM435.984 536.138H452.141V506.879H464.917V536.138H481.074V461.559H464.917V492.797H452.141V461.559H435.984V536.138ZM516.769 475.641V536.138H532.926V511.144H544.568V536.138H560.725V475.641C560.725 465.44 555.941 460.387 546.432 460.387H531.062C521.553 460.445 516.769 465.497 516.769 475.641ZM532.926 498.657V473.662C532.926 472.49 533.925 471.357 535.116 471.357H542.378C543.55 471.357 544.568 472.49 544.568 473.662V498.657H532.926ZM596.747 475.641V536.138H612.904V474.22C612.904 473.048 613.922 471.914 615.094 471.914H621.337C622.529 471.914 623.489 473.048 623.489 474.22V536.138H639.627V475.641C639.627 465.44 634.843 460.387 625.333 460.387H611.04C601.53 460.445 596.747 465.497 596.747 475.641ZM674.649 475.641V522.075C674.649 532.2 679.433 537.272 688.943 537.272H703.467C712.976 537.272 717.76 532.2 717.76 522.075V494.661H696.435V506.533H702.449V523.92C702.449 525.111 701.43 526.225 700.258 526.225H692.996C691.825 526.225 690.806 525.111 690.806 523.92V473.662C690.806 472.49 691.825 471.357 692.996 471.357H700.258C701.43 471.357 702.449 472.49 702.449 473.662V482.673H717.76V475.641C717.76 465.44 712.976 460.387 703.467 460.387H688.943C679.433 460.445 674.649 465.497 674.649 475.641ZM750.804 536.138H784.866V522.748H766.961V504.9H783.675V492.24H766.961V474.681H784.866V461.559H750.804V536.138Z" fill="#D79C4E"/>
</g>
<defs>
<linearGradient id="paint0_linear_408_16" x1="255.588" y1="206.747" x2="526.413" y2="206.747" gradientUnits="userSpaceOnUse">
<stop stop-color="#B97539"/>
<stop offset="0.49631" stop-color="#FFD297"/>
<stop offset="1" stop-color="#B97539"/>
</linearGradient>
<linearGradient id="paint1_linear_408_16" x1="391" y1="408.466" x2="391" y2="5.02838" gradientUnits="userSpaceOnUse">
<stop stop-color="#B97539"/>
<stop offset="0.49631" stop-color="#FFD297"/>
<stop offset="1" stop-color="#B97539"/>
</linearGradient>
<clipPath id="clip0_408_16">
<rect width="785" height="537" fill="white"/>
</clipPath>
</defs>
</svg>
