<svg width="825" height="609" viewBox="0 0 825 609" fill="none" xmlns="http://www.w3.org/2000/svg">
<g clip-path="url(#clip0_409_35)">
<path d="M401.328 -2.86786L289.454 54.981C281.278 59.2125 276.138 67.6481 276.138 76.8539V149.422C276.138 158.634 281.278 167.075 289.46 171.301L460.464 259.706V288.853L411.535 314.143L276.127 244.133V261.83L411.535 331.839L476.185 298.411V267.838L488.781 274.348V306.081L488.786 306.092L348.184 378.743L401.328 406.229C407.733 409.536 415.343 409.536 421.748 406.229L533.633 348.38C541.815 344.149 546.949 335.708 546.949 326.496V253.933C546.949 244.727 541.815 236.281 533.633 232.055L362.612 143.645V114.492L411.535 89.2018L546.949 159.206V141.515L411.535 71.4999L346.891 104.928V135.517L334.312 129.013V97.2906L334.295 97.2521L411.541 57.3362L474.881 24.6012L421.748 -2.86786C418.546 -4.52415 415.046 -5.34952 411.541 -5.34952C408.036 -5.34952 404.53 -4.52415 401.328 -2.86786ZM425.231 64.418L546.949 127.346V76.8539C546.949 67.6481 541.815 59.2125 533.633 54.981L488.572 31.6775L425.231 64.418ZM276.138 326.502C276.138 335.708 281.278 344.149 289.454 348.38L334.499 371.667L397.845 338.927L276.138 276.015V326.502Z" fill="url(#paint0_linear_409_35)"/>
<path d="M401.328 2.44209L294.176 57.8478C285.993 62.0793 280.86 70.5148 280.86 79.7262V146.555C280.86 155.761 285.993 164.202 294.176 168.434L465.18 256.839V291.725L411.535 319.453L280.843 251.881V258.957L411.535 326.535L471.47 295.544V260.085L493.497 271.476V304.981L495.071 308.15L358.452 378.743L401.328 400.913C407.733 404.226 415.343 404.226 421.748 400.919L528.917 345.513C537.094 341.282 542.233 332.835 542.233 323.629V256.806C542.233 247.6 537.094 239.153 528.912 234.927L357.896 146.517V111.619L411.535 83.8862L542.233 151.464V144.382L411.535 76.8098L351.607 107.795V143.259L329.596 131.88V98.446L327.929 95.238L464.614 24.6011L421.748 2.44209C418.546 0.785808 415.046 -0.0396052 411.541 -0.0396052C408.036 -0.0396052 404.531 0.785808 401.328 2.44209ZM435.499 64.4179L542.233 119.598V79.7262C542.233 70.5203 537.094 62.0793 528.917 57.8478L488.572 36.9875L435.499 64.4179ZM280.86 323.629C280.86 332.835 285.993 341.282 294.176 345.513L334.499 366.362L387.572 338.921L280.86 283.757V323.629Z" fill="url(#paint1_linear_409_35)"/>
<path d="M20.3176 514.496C20.3176 524.62 25.1013 529.692 34.611 529.692H48.232C57.7417 529.692 62.5254 524.62 62.5254 514.496V498.454C62.5254 488.483 57.7417 483.412 48.232 483.258H37.877C36.5898 483.258 35.6869 482.124 35.6869 480.933V467.716C35.6869 466.429 36.6859 465.41 37.877 465.41H44.1784C45.4655 465.41 46.3685 466.525 46.3685 467.716V473.575H61.7377V468.062C61.7377 457.86 56.954 452.808 47.4443 452.808H34.611C25.1013 452.865 20.3176 457.918 20.3176 468.062V482.912C20.3176 493.037 25.1013 498.108 34.611 498.108H45.0237C46.1956 498.108 47.2138 499.242 47.2138 500.414V515.053C47.2138 516.34 46.1956 517.358 45.0237 517.358H37.877C36.5898 517.358 35.6869 516.225 35.6869 515.053V506.773H20.3176V514.496ZM93.0333 467.716H105.137V528.559H121.236V467.716H133.339V453.98H93.0333V467.716ZM164.923 468.062V528.559H181.061V503.565H192.722V528.559H208.879V468.062C208.879 457.86 204.095 452.808 194.585 452.808H179.216C169.707 452.865 164.923 457.918 164.923 468.062ZM181.061 491.077V466.083C181.061 464.911 182.079 463.777 183.27 463.777H190.532C191.704 463.777 192.722 464.911 192.722 466.083V491.077H181.061ZM245.016 528.559H261.173V499.3H277.541V485.775H261.173V467.946H278.674V453.98H245.016V528.559ZM312.275 528.559H328.432V499.3H344.8V485.775H328.432V467.946H345.934V453.98H312.275V528.559ZM379.535 468.062V514.496C379.535 524.62 384.319 529.692 393.828 529.692H408.352C417.862 529.692 422.646 524.62 422.646 514.496V504.813H407.353V516.34C407.353 517.531 406.335 518.646 405.144 518.646H397.882C396.71 518.646 395.692 517.531 395.692 516.34V466.083C395.692 464.911 396.71 463.777 397.882 463.777H405.144C406.335 463.777 407.353 464.911 407.353 466.083V475.093H422.646V468.062C422.646 457.86 417.862 452.808 408.352 452.808H393.828C384.319 452.865 379.535 457.918 379.535 468.062ZM456.477 528.559H472.634V499.3H485.41V528.559H501.567V453.98H485.41V485.217H472.634V453.98H456.477V528.559ZM537.262 468.062V528.559H553.419V503.565H565.061V528.559H581.218V468.062C581.218 457.86 576.434 452.808 566.924 452.808H551.555C542.045 452.865 537.262 457.918 537.262 468.062ZM553.419 491.077V466.083C553.419 464.911 554.418 463.777 555.609 463.777H562.871C564.043 463.777 565.061 464.911 565.061 466.083V491.077H553.419ZM617.239 468.062V528.559H633.396V466.64C633.396 465.468 634.414 464.335 635.586 464.335H641.83C643.021 464.335 643.982 465.468 643.982 466.64V528.559H660.119V468.062C660.119 457.86 655.336 452.808 645.826 452.808H631.533C622.023 452.865 617.239 457.918 617.239 468.062ZM695.142 468.062V514.496C695.142 524.62 699.926 529.692 709.436 529.692H723.959C733.469 529.692 738.253 524.62 738.253 514.496V487.081H716.928V498.954H722.941V516.34C722.941 517.531 721.923 518.646 720.751 518.646H713.489C712.317 518.646 711.299 517.531 711.299 516.34V466.083C711.299 464.911 712.317 463.777 713.489 463.777H720.751C721.923 463.777 722.941 464.911 722.941 466.083V475.093H738.253V468.062C738.253 457.86 733.469 452.808 723.959 452.808H709.436C699.926 452.865 695.142 457.918 695.142 468.062ZM771.297 528.559H805.359V515.168H787.454V497.321H804.168V484.66H787.454V467.101H805.359V453.98H771.297V528.559Z" fill="#D79C4E"/>
<path d="M41.544 607.773C38.5726 607.773 35.8573 607.017 33.3983 605.506C30.952 603.982 28.9988 601.971 27.5387 599.474C26.0787 596.963 25.3486 594.197 25.3486 591.174V587.37C25.3486 587.089 25.4895 586.948 25.7713 586.948H35.012C35.2426 586.948 35.3578 587.089 35.3578 587.37V591.174C35.3578 592.993 35.9598 594.549 37.1637 595.843C38.3805 597.136 39.8405 597.783 41.544 597.783C43.2474 597.783 44.7075 597.117 45.9242 595.785C47.1409 594.466 47.7493 592.929 47.7493 591.174C47.7493 589.138 46.4237 587.37 43.7725 585.872C42.8888 585.385 41.5119 584.617 39.642 583.567C37.7721 582.516 36.011 581.524 34.3588 580.589C31.3234 578.834 29.0757 576.618 27.6156 573.942C26.1683 571.278 25.4447 568.261 25.4447 564.893C25.4447 561.806 26.1875 559.04 27.6732 556.594C29.1589 554.147 31.1249 552.207 33.5712 550.772C36.0174 549.338 38.675 548.621 41.544 548.621C44.4641 548.621 47.1473 549.351 49.5936 550.811C52.0527 552.271 54.0122 554.224 55.4723 556.67C56.9324 559.13 57.6624 561.87 57.6624 564.893V571.675C57.6624 571.892 57.5472 572.001 57.3166 572.001H48.0759C47.8582 572.001 47.7493 571.892 47.7493 571.675L47.6532 564.893C47.6532 562.972 47.0513 561.403 45.8473 560.186C44.6306 558.982 43.1962 558.38 41.544 558.38C39.8405 558.38 38.3805 559.027 37.1637 560.321C35.9598 561.614 35.3578 563.138 35.3578 564.893C35.3578 566.712 35.7421 568.229 36.5105 569.446C37.279 570.65 38.6814 571.803 40.7179 572.904C40.9996 573.071 41.5376 573.365 42.3316 573.788C43.1257 574.198 43.9902 574.665 44.9252 575.19C45.8602 575.703 46.6991 576.157 47.4419 576.554C48.1976 576.939 48.6522 577.182 48.8059 577.284C51.5596 578.834 53.7369 580.723 55.3378 582.952C56.9388 585.18 57.7393 587.921 57.7393 591.174C57.7393 594.312 57.0092 597.13 55.5492 599.627C54.0891 602.138 52.1359 604.123 49.6897 605.583C47.2306 607.043 44.5153 607.773 41.544 607.773ZM85.3271 606.947H75.9902C75.7725 606.947 75.6637 606.806 75.6637 606.524L75.8366 549.87C75.8366 549.588 75.9454 549.447 76.1631 549.447H85.4039C85.6344 549.447 85.7497 549.588 85.7497 549.87V569.446L98.7175 549.773C98.884 549.556 99.0761 549.447 99.2938 549.447H108.784C109.002 549.447 109.06 549.556 108.957 549.773L94.6639 572.578L110.686 606.62C110.802 606.838 110.667 606.947 110.283 606.947H100.197C99.9278 606.947 99.7613 606.838 99.6973 606.62L88.5546 582.337L85.6536 586.871V606.524C85.6536 606.806 85.5448 606.947 85.3271 606.947ZM135.469 606.947H126.132C125.863 606.947 125.729 606.806 125.729 606.524L125.806 549.773C125.806 549.556 125.915 549.447 126.132 549.447H135.392C135.61 549.447 135.719 549.556 135.719 549.773L135.796 606.524C135.796 606.806 135.687 606.947 135.469 606.947ZM182.23 606.947H155.545C155.328 606.947 155.219 606.806 155.219 606.524L155.295 549.87C155.295 549.588 155.436 549.447 155.718 549.447H164.882C165.151 549.447 165.285 549.588 165.285 549.87L165.209 596.784H182.23C182.499 596.784 182.633 596.925 182.633 597.207V606.524C182.633 606.806 182.499 606.947 182.23 606.947ZM227.166 606.947H200.481C200.263 606.947 200.154 606.806 200.154 606.524L200.231 549.87C200.231 549.588 200.372 549.447 200.654 549.447H209.818C210.1 549.447 210.24 549.588 210.24 549.87L210.144 596.784H227.166C227.448 596.784 227.588 596.925 227.588 597.207V606.524C227.588 606.806 227.448 606.947 227.166 606.947ZM272.102 606.947H245.417C245.199 606.947 245.09 606.806 245.09 606.524L245.186 549.773C245.186 549.556 245.295 549.447 245.513 549.447H272.025C272.242 549.447 272.351 549.588 272.351 549.87V559.11C272.351 559.328 272.242 559.437 272.025 559.437H255.099V572.328H272.025C272.242 572.328 272.351 572.437 272.351 572.654L272.447 581.991C272.447 582.222 272.332 582.337 272.102 582.337H255.099V596.784H272.102C272.332 596.784 272.447 596.925 272.447 597.207V606.62C272.447 606.838 272.332 606.947 272.102 606.947ZM307.143 606.87L292.351 606.947C292.069 606.947 291.928 606.806 291.928 606.524L292.101 549.773C292.101 549.556 292.21 549.447 292.427 549.447L307.874 549.37C310.909 549.319 313.675 550.036 316.173 551.522C318.683 553.007 320.681 554.999 322.167 557.497C323.653 560.007 324.395 562.78 324.395 565.815V589.522C324.395 592.711 323.627 595.612 322.09 598.225C320.54 600.851 318.472 602.932 315.885 604.469C313.298 606.006 310.384 606.806 307.143 606.87ZM302.091 559.36L302.014 596.784H307.143C309.18 596.784 310.896 596.067 312.292 594.632C313.701 593.198 314.405 591.495 314.405 589.522V565.719C314.405 563.964 313.759 562.44 312.465 561.147C311.171 559.853 309.641 559.232 307.874 559.283L302.091 559.36ZM385.027 606.947H375.037C374.819 606.947 374.685 606.806 374.634 606.524L364.874 549.773C364.823 549.556 364.906 549.447 365.124 549.447H374.384C374.602 549.447 374.736 549.556 374.787 549.773L380.07 587.121L385.527 549.773C385.591 549.556 385.757 549.447 386.026 549.447H393.461C393.679 549.447 393.813 549.556 393.864 549.773L399.244 587.121L404.604 549.773C404.668 549.556 404.809 549.447 405.026 549.447H414.19C414.472 549.447 414.581 549.556 414.517 549.773L404.7 606.524C404.636 606.64 404.552 606.742 404.45 606.832C404.335 606.909 404.277 606.947 404.277 606.947H394.287C394.12 606.947 393.98 606.806 393.864 606.524L389.657 576.881L385.45 606.524C385.398 606.806 385.258 606.947 385.027 606.947ZM445.178 607.773C442.207 607.773 439.492 607.017 437.033 605.506C434.586 603.982 432.62 601.971 431.135 599.474C429.649 596.963 428.906 594.197 428.906 591.174L428.983 564.989C428.983 561.954 429.713 559.2 431.173 556.728C432.633 554.243 434.599 552.258 437.071 550.772C439.556 549.287 442.258 548.544 445.178 548.544C448.15 548.544 450.846 549.287 453.266 550.772C455.687 552.258 457.627 554.243 459.088 556.728C460.548 559.2 461.278 561.954 461.278 564.989L461.374 591.174C461.374 594.197 460.644 596.963 459.184 599.474C457.723 601.971 455.764 603.982 453.305 605.506C450.859 607.017 448.15 607.773 445.178 607.773ZM445.178 597.783C446.831 597.783 448.278 597.104 449.52 595.747C450.75 594.402 451.364 592.878 451.364 591.174L451.288 564.989C451.288 563.17 450.711 561.627 449.559 560.359C448.393 559.091 446.933 558.457 445.178 558.457C443.462 558.457 442.002 559.078 440.798 560.321C439.581 561.55 438.973 563.106 438.973 564.989V591.174C438.973 592.993 439.581 594.549 440.798 595.843C442.002 597.136 443.462 597.783 445.178 597.783ZM489.461 606.947H480.124C479.894 606.947 479.778 606.806 479.778 606.524L479.951 549.773C479.951 549.556 480.06 549.447 480.278 549.447H496.973C499.944 549.447 502.685 550.177 505.195 551.637C507.693 553.097 509.684 555.05 511.17 557.497C512.668 559.956 513.418 562.728 513.418 565.815C513.418 567.852 513.11 569.683 512.496 571.31C511.894 572.923 511.176 574.3 510.344 575.44C509.524 576.567 508.781 577.406 508.115 577.957C511.1 581.261 512.592 585.142 512.592 589.599L512.668 606.524C512.668 606.806 512.528 606.947 512.246 606.947H502.909C502.691 606.947 502.582 606.864 502.582 606.697V589.599C502.582 587.614 501.884 585.891 500.488 584.431C499.08 582.971 497.357 582.241 495.32 582.241H489.864L489.788 606.524C489.788 606.806 489.679 606.947 489.461 606.947ZM489.864 559.36V572.328H496.973C498.676 572.328 500.187 571.694 501.507 570.426C502.839 569.158 503.505 567.621 503.505 565.815C503.505 564.048 502.858 562.53 501.564 561.262C500.258 559.994 498.727 559.36 496.973 559.36H489.864ZM541.409 606.947H532.072C531.854 606.947 531.746 606.806 531.746 606.524L531.918 549.87C531.918 549.588 532.027 549.447 532.245 549.447H541.505C541.723 549.447 541.832 549.588 541.832 549.87V569.446L554.799 549.773C554.966 549.556 555.158 549.447 555.376 549.447H564.885C565.103 549.447 565.154 549.556 565.039 549.773L550.746 572.578L566.768 606.62C566.883 606.838 566.749 606.947 566.365 606.947H556.279C556.01 606.947 555.85 606.838 555.798 606.62L544.636 582.337L541.755 586.871V606.524C541.755 606.806 541.639 606.947 541.409 606.947ZM592.3 606.947H583.06C582.778 606.947 582.637 606.806 582.637 606.524L582.81 549.773C582.81 549.556 582.919 549.447 583.136 549.447H609.572C609.84 549.447 609.975 549.556 609.975 549.773V559.11C609.975 559.328 609.866 559.437 609.648 559.437H592.723V572.251H609.648C609.866 572.251 609.975 572.385 609.975 572.654L610.071 581.991C610.071 582.222 609.93 582.337 609.648 582.337H592.723V606.524C592.723 606.806 592.582 606.947 592.3 606.947ZM641.866 607.773C638.895 607.773 636.186 607.017 633.74 605.506C631.281 603.982 629.308 601.971 627.822 599.474C626.337 596.963 625.594 594.197 625.594 591.174L625.671 564.989C625.671 561.954 626.401 559.2 627.861 556.728C629.321 554.243 631.293 552.258 633.778 550.772C636.25 549.287 638.946 548.544 641.866 548.544C644.837 548.544 647.54 549.287 649.973 550.772C652.394 552.258 654.334 554.243 655.794 556.728C657.255 559.2 657.985 561.954 657.985 564.989L658.061 591.174C658.061 594.197 657.331 596.963 655.871 599.474C654.411 601.971 652.458 603.982 650.012 605.506C647.553 607.017 644.837 607.773 641.866 607.773ZM641.866 597.783C643.518 597.783 644.966 597.104 646.208 595.747C647.45 594.402 648.071 592.878 648.071 591.174L647.975 564.989C647.975 563.17 647.399 561.627 646.246 560.359C645.094 559.091 643.634 558.457 641.866 558.457C640.163 558.457 638.703 559.078 637.486 560.321C636.282 561.55 635.68 563.106 635.68 564.989V591.174C635.68 592.993 636.282 594.549 637.486 595.843C638.703 597.136 640.163 597.783 641.866 597.783ZM686.149 606.947H676.812C676.594 606.947 676.485 606.806 676.485 606.524L676.639 549.773C676.639 549.556 676.754 549.447 676.985 549.447H693.66C696.632 549.447 699.373 550.177 701.883 551.637C704.393 553.097 706.391 555.05 707.877 557.497C709.363 559.956 710.105 562.728 710.105 565.815C710.105 567.852 709.804 569.683 709.203 571.31C708.588 572.923 707.871 574.3 707.051 575.44C706.218 576.567 705.475 577.406 704.822 577.957C707.794 581.261 709.279 585.142 709.279 589.599L709.356 606.524C709.356 606.806 709.222 606.947 708.953 606.947H699.616C699.398 606.947 699.289 606.864 699.289 606.697V589.599C699.289 587.614 698.585 585.891 697.176 584.431C695.767 582.971 694.045 582.241 692.008 582.241H686.552L686.475 606.524C686.475 606.806 686.366 606.947 686.149 606.947ZM686.552 559.36V572.328H693.66C695.377 572.328 696.894 571.694 698.214 570.426C699.533 569.158 700.192 567.621 700.192 565.815C700.192 564.048 699.545 562.53 698.252 561.262C696.958 559.994 695.428 559.36 693.66 559.36H686.552ZM743.226 607.773C740.204 607.773 737.463 607.017 735.004 605.506C732.557 603.982 730.617 601.958 729.183 599.435C727.748 596.899 727.031 594.062 727.031 590.925L727.127 565.143C727.127 562.12 727.825 559.354 729.221 556.843C730.63 554.333 732.557 552.322 735.004 550.811C737.463 549.3 740.204 548.544 743.226 548.544C746.262 548.544 748.99 549.287 751.41 550.772C753.831 552.258 755.758 554.256 757.193 556.766C758.627 559.264 759.345 562.056 759.345 565.143V568.947C759.345 569.164 759.236 569.273 759.018 569.273H749.758C749.54 569.273 749.431 569.164 749.431 568.947V565.143C749.431 563.324 748.836 561.755 747.645 560.436C746.467 559.117 744.994 558.457 743.226 558.457C741.241 558.457 739.73 559.13 738.692 560.474C737.642 561.832 737.117 563.388 737.117 565.143V590.925C737.117 592.961 737.706 594.613 738.884 595.881C740.075 597.149 741.523 597.783 743.226 597.783C744.994 597.783 746.467 597.079 747.645 595.67C748.836 594.261 749.431 592.679 749.431 590.925V587.121C749.431 586.903 749.54 586.794 749.758 586.794H759.095C759.313 586.794 759.422 586.903 759.422 587.121V590.925C759.422 594.062 758.691 596.899 757.231 599.435C755.771 601.958 753.831 603.982 751.41 605.506C748.99 607.017 746.262 607.773 743.226 607.773ZM804.607 606.947H777.922C777.704 606.947 777.596 606.806 777.596 606.524L777.672 549.773C777.672 549.556 777.788 549.447 778.018 549.447H804.53C804.748 549.447 804.857 549.588 804.857 549.87V559.11C804.857 559.328 804.748 559.437 804.53 559.437H787.586V572.328H804.53C804.748 572.328 804.857 572.437 804.857 572.654L804.934 581.991C804.934 582.222 804.825 582.337 804.607 582.337H787.586V596.784H804.607C804.825 596.784 804.934 596.925 804.934 597.207V606.62C804.934 606.838 804.825 606.947 804.607 606.947Z" fill="#D79C4E"/>
</g>
<defs>
<linearGradient id="paint0_linear_409_35" x1="276.126" y1="201.679" x2="546.951" y2="201.679" gradientUnits="userSpaceOnUse">
<stop stop-color="#B97539"/>
<stop offset="0.49631" stop-color="#FFD297"/>
<stop offset="1" stop-color="#B97539"/>
</linearGradient>
<linearGradient id="paint1_linear_409_35" x1="411.539" y1="403.398" x2="411.539" y2="-0.0397392" gradientUnits="userSpaceOnUse">
<stop stop-color="#B97539"/>
<stop offset="0.49631" stop-color="#FFD297"/>
<stop offset="1" stop-color="#B97539"/>
</linearGradient>
<clipPath id="clip0_409_35">
<rect width="825" height="609" fill="white"/>
</clipPath>
</defs>
</svg>
